#!OML:ASF F:\VICON\USERDATA\INSTALL\rory3\rory3.ASF
:FULLY-SPECIFIED
:DEGREES
176
root 0.734665 17.6141 -13.4707 23.4509 -2.47449 5.52332
lowerback 23.296 0.245991 -3.37259
upperback 3.48066 -0.652529 -1.38666
thorax -9.14688 -0.218573 0.603114
lowerneck -13.2361 -3.42927 -8.21165
upperneck -4.88525 -3.43685 9.35521
head 0.986593 -1.43901 4.00823
rclavicle -9.93923e-016 9.93923e-016
rhumerus -43.3999 -5.08014 -71.9013
rradius 20.2908
rwrist 20.7203
rhand -26.4995 2.19432
rfingers 7.12502
rthumb 0.063315 -27.7854
lclavicle -9.93923e-016 9.93923e-016
lhumerus -50.3281 20.3184 54.7534
lradius 15.9077
lwrist -12.8039
lhand -21.028 26.6611
lfingers 7.12502
lthumb 5.3473 56.5737
rfemur -49.4094 10.9097 5.39859
rtibia 53.5594
rfoot -27.5724 -14.5686
rtoes -5.18003
lfemur -45.967 -1.45634 -25.3398
ltibia 48.8935
lfoot -23.5694 4.32393
ltoes -6.80833
177
root 0.721502 17.5431 -13.4771 23.6767 -2.56377 5.51503
lowerback 23.6539 0.364136 -3.46154
upperback 3.40044 -0.542301 -1.39238
thorax -9.42908 -0.159045 0.614198
lowerneck -13.1121 -3.47466 -8.28393
upperneck -5.09709 -3.4851 9.46174
head 0.913403 -1.46445 4.05318
rclavicle 3.18055e-015 -5.36719e-015
rhumerus -43.4198 -5.58383 -71.6104
rradius 19.8238
rwrist 21.2907
rhand -26.2051 1.8616
rfingers 7.12502
rthumb 0.347619 -28.1179
lclavicle 3.18055e-015 -5.36719e-015
lhumerus -50.2538 20.2704 54.841
lradius 15.954
lwrist -12.2769
lhand -21.192 27.43
lfingers 7.12502
lthumb 5.18897 57.3465
rfemur -50.3571 10.7451 5.43843
rtibia 54.6472
rfoot -27.8493 -14.5343
rtoes -5.60813
lfemur -46.7881 -1.33468 -25.3068
ltibia 49.8384
lfoot -23.9379 4.17528
ltoes -6.73472
178
root 0.712351 17.477 -13.4696 23.8029 -2.58885 5.74209
lowerback 23.9356 0.41954 -3.63933
upperback 3.37525 -0.537298 -1.46189
thorax -9.60576 -0.148596 0.637476
lowerneck -13.0884 -3.51945 -8.28853
upperneck -5.207 -3.54032 9.45562
head 0.881817 -1.49345 4.05024
rclavicle 6.36111e-015 4.96962e-015
rhumerus -43.3661 -6.05538 -71.3883
rradius 19.2869
rwrist 21.4445
rhand -26.404 2.0684
rfingers 7.12502
rthumb 0.155558 -27.9113
lclavicle 6.36111e-015 4.96962e-015
lhumerus -50.1744 20.629 54.6186
lradius 15.769
lwrist -12.4548
lhand -21.3569 27.152
lfingers 7.12502
lthumb 5.02976 57.0723
rfemur -51.0651 10.4115 5.29712
rtibia 55.7211
rfoot -28.2107 -14.4163
rtoes -5.78051
lfemur -47.365 -1.34106 -25.5339
ltibia 50.7011
lfoot -24.361 3.99848
ltoes -6.62914
179
root 0.703246 17.4302 -13.4375 23.788 -2.38859 6.00969
lowerback 24.0408 0.387749 -3.73086
upperback 3.45682 -0.607224 -1.50215
thorax -9.56676 -0.179632 0.667608
lowerneck -13.1485 -3.55901 -8.27715
upperneck -5.2889 -3.58613 9.45999
head 0.87057 -1.5156 4.04745
rclavicle 2.38542e-015 -1.98785e-015
rhumerus -43.2666 -6.24692 -71.4156
rradius 18.7283
rwrist 21.0076
rhand -27.7244 3.07429
rfingers 7.12502
rthumb -1.11977 -26.9025
lclavicle 2.38542e-015 -1.98785e-015
lhumerus -50.0219 20.915 54.5598
lradius 15.6485
lwrist -12.6433
lhand -21.3799 26.6644
lfingers 7.12502
lthumb 5.00756 56.5852
rfemur -51.3187 9.96606 5.24593
rtibia 56.6946
rfoot -28.796 -14.3012
rtoes -5.85995
lfemur -47.5828 -1.39627 -25.7859
ltibia 51.4125
lfoot -24.7957 3.66779
ltoes -6.36409
180
root 0.698784 17.3904 -13.3991 23.6579 -2.14476 6.21811
lowerback 24.2002 0.353985 -3.72533
upperback 3.57257 -0.65338 -1.51369
thorax -9.51954 -0.202844 0.666843
lowerneck -13.1446 -3.57172 -8.2637
upperneck -5.3992 -3.59895 9.45873
head 0.838087 -1.5229 4.04527
rclavicle -5.96354e-016 -2.5842e-015
rhumerus -43.1209 -6.77484 -71.1484
rradius 18.2213
rwrist 21.7103
rhand -28.0988 3.46189
rfingers 7.12502
rthumb -1.48136 -26.5127
lclavicle -5.96354e-016 -2.5842e-015
lhumerus -49.7807 20.9853 54.8266
lradius 15.7283
lwrist -12.6533
lhand -21.2576 26.7332
lfingers 7.12502
lthumb 5.12564 56.6512
rfemur -51.3783 9.49548 5.30904
rtibia 57.5854
rfoot -29.2825 -14.2599
rtoes -6.4904
lfemur -47.6023 -1.50402 -25.9654
ltibia 52.0537
lfoot -25.224 3.44527
ltoes -6.36536
181
root 0.703423 17.3407 -13.3645 23.5513 -2.09046 6.60645
lowerback 24.4788 0.360793 -3.84146
upperback 3.60916 -0.698992 -1.62736
thorax -9.62377 -0.220287 0.622256
lowerneck -13.176 -3.58779 -8.26553
upperneck -5.38333 -3.61837 9.49859
head 0.850583 -1.53092 4.05633
rclavicle -9.34288e-015 -2.06736e-014
rhumerus -42.9613 -7.6711 -70.5488
rradius 17.6866
rwrist 23.5286
rhand -27.1887 2.87682
rfingers 7.12502
rthumb -0.60231 -27.1021
lclavicle -9.34288e-015 -2.06736e-014
lhumerus -49.4964 21.0408 55.139
lradius 15.7356
lwrist -12.7823
lhand -21.0959 26.5413
lfingers 7.12502
lthumb 5.28173 56.4555
rfemur -51.5452 8.98926 5.09988
rtibia 58.4523
rfoot -29.5958 -14.2021
rtoes -7.69211
lfemur -47.6563 -1.65099 -26.3879
ltibia 52.6768
lfoot -25.6865 3.39643
ltoes -6.44659
182
root 0.701343 17.2816 -13.3181 23.5008 -1.93143 6.76556
lowerback 24.4886 0.336223 -3.77166
upperback 3.69148 -0.7136 -1.66821
thorax -9.53742 -0.232027 0.541956
lowerneck -13.2753 -3.64042 -8.19569
upperneck -5.37419 -3.69215 9.44718
head 0.871923 -1.5675 4.02395
rclavicle -1.15295e-014 7.15625e-015
rhumerus -42.6934 -8.50976 -70.0741
rradius 17.1237
rwrist 24.9094
rhand -26.3974 2.62838
rfingers 7.12502
rthumb 0.161906 -27.3513
lclavicle -1.15295e-014 7.15625e-015
lhumerus -49.0232 21.0313 55.6019
lradius 15.6587
lwrist -12.8059
lhand -20.8761 26.2893
lfingers 7.12502
lthumb 5.49394 56.1981
rfemur -51.6098 8.62506 5.13533
rtibia 59.2924
rfoot -30.1297 -14.0907
rtoes -8.79199
lfemur -47.7831 -1.72497 -26.5449
ltibia 53.3478
lfoot -26.1926 3.29685
ltoes -6.76311
183
root 0.694605 17.2262 -13.2595 23.3193 -1.53603 6.90418
lowerback 24.4387 0.236922 -3.65624
upperback 3.85563 -0.79668 -1.62429
thorax -9.32497 -0.278103 0.551358
lowerneck -13.2952 -3.63882 -8.13769
upperneck -5.50345 -3.68943 9.34579
head 0.832016 -1.56898 3.98453
rclavicle 1.0138e-014 1.2921e-014
rhumerus -42.3009 -8.97822 -69.8696
rradius 16.5937
rwrist 25.4393
rhand -26.1927 2.24381
rfingers 7.12502
rthumb 0.359615 -27.7356
lclavicle 1.0138e-014 1.2921e-014
lhumerus -48.4729 21.122 56.1152
lradius 15.5583
lwrist -12.8278
lhand -20.7456 26.2693
lfingers 7.12502
lthumb 5.62001 56.1748
rfemur -51.3749 8.27639 5.2682
rtibia 60.0988
rfoot -30.9125 -13.8987
rtoes -8.86805
lfemur -47.7192 -1.91807 -26.5909
ltibia 54.0761
lfoot -26.7672 3.05916
ltoes -7.05136
184
root 0.708628 17.1709 -13.2148 23.276 -1.42758 7.48615
lowerback 24.515 0.178934 -3.81382
upperback 3.89778 -0.926413 -1.75419
thorax -9.31292 -0.335696 0.53893
lowerneck -13.3849 -3.61247 -8.09731
upperneck -5.57547 -3.649 9.22879
head 0.816288 -1.5493 3.94409
rclavicle -4.37326e-015 -1.98785e-016
rhumerus -41.9075 -9.56839 -69.5278
rradius 16.0249
rwrist 26.1129
rhand -26.0699 1.95493
rfingers 7.12502
rthumb 0.478231 -28.0243
lclavicle -4.37326e-015 -1.98785e-016
lhumerus -47.9022 21.2727 56.6894
lradius 15.4604
lwrist -12.9826
lhand -20.668 26.4892
lfingers 7.12502
lthumb 5.69488 56.3926
rfemur -51.5204 7.63663 4.79496
rtibia 60.972
rfoot -31.3805 -13.7074
rtoes -9.23212
lfemur -47.8224 -2.1194 -27.2743
ltibia 54.8213
lfoot -27.3382 2.91296
ltoes -7.25651
185
root 0.675303 17.1143 -13.1698 23.1429 -1.29234 6.91015
lowerback 24.571 0.336084 -3.74702
upperback 3.93593 -0.673963 -1.42386
thorax -9.30414 -0.215096 0.787048
lowerneck -13.4294 -3.61181 -8.21175
upperneck -5.54359 -3.62973 9.22587
head 0.832605 -1.53621 3.96227
rclavicle 1.39149e-015 9.14409e-015
rhumerus -41.5383 -10.0613 -69.1858
rradius 15.4411
rwrist 26.8012
rhand -26.2324 2.03403
rfingers 7.12502
rthumb 0.321276 -27.9455
lclavicle 1.39149e-015 9.14409e-015
lhumerus -47.3592 21.361 57.4025
lradius 15.4336
lwrist -13.1411
lhand -20.5874 26.7174
lfingers 7.12502
lthumb 5.77269 56.6187
rfemur -51.7092 8.0621 5.55679
rtibia 61.7809
rfoot -31.8132 -14.145
rtoes -9.30885
lfemur -48.0532 -1.7504 -26.569
ltibia 55.6708
lfoot -27.7868 2.54561
ltoes -7.138
186
root 0.664985 17.0497 -13.1302 23.0577 -1.13484 6.76651
lowerback 24.6061 0.335392 -3.59745
upperback 4.00457 -0.625074 -1.32605
thorax -9.248 -0.196813 0.794506
lowerneck -13.5444 -3.61376 -8.29105
upperneck -5.53721 -3.61249 9.23048
head 0.851816 -1.52316 3.97654
rclavicle -5.76476e-015 -2.10712e-014
rhumerus -40.9581 -10.75 -68.8921
rradius 14.7577
rwrist 27.6515
rhand -26.719 2.19252
rfingers 7.12502
rthumb -0.148676 -27.7872
lclavicle -5.76476e-015 -2.10712e-014
lhumerus -46.6832 21.532 58.0709
lradius 15.3646
lwrist -13.4589
lhand -20.835 26.3538
lfingers 7.12502
lthumb 5.53365 56.2616
rfemur -51.9054 8.00265 5.86838
rtibia 62.7322
rfoot -32.3691 -14.1772
rtoes -9.42299
lfemur -48.3058 -1.61375 -26.4016
ltibia 56.5388
lfoot -28.1618 2.37019
ltoes -7.38865
187
root 0.668783 16.9882 -13.0866 23.005 -0.968619 6.86757
lowerback 24.6133 0.254967 -3.40044
upperback 4.04939 -0.683131 -1.39332
thorax -9.20303 -0.231978 0.625667
lowerneck -13.663 -3.60947 -8.10857
upperneck -5.56284 -3.62295 9.12497
head 0.856662 -1.5306 3.9128
rclavicle 9.74045e-015 0
rhumerus -40.4481 -11.8286 -68.4778
rradius 14.1872
rwrist 28.8549
rhand -26.9232 2.76536
rfingers 7.12502
rthumb -0.345885 -27.2141
lclavicle 9.74045e-015 0
lhumerus -45.9011 21.6171 58.7162
lradius 15.2216
lwrist -13.7326
lhand -21.2401 25.8073
lfingers 7.12502
lthumb 5.14253 55.7249
rfemur -52.0873 7.64262 5.93757
rtibia 63.7194
rfoot -32.9336 -14.0181
rtoes -9.67421
lfemur -48.5229 -1.66033 -26.5297
ltibia 57.3778
lfoot -28.5641 2.41724
ltoes -8.05591
